<svg width="642" height="281" viewBox="0 0 642 281" fill="none" xmlns="http://www.w3.org/2000/svg">
<g clip-path="url(#clip0_410_33)">
<path d="M-37.168 168.5L-37.744 170.516H-36.592L-37.168 168.5ZM87.824 190.964C86.672 191.828 85.808 192.692 85.52 193.556L87.536 193.268L87.824 190.964ZM87.824 167.348V168.212H88.976V167.348H87.824ZM91.28 165.908V168.212H92.72V165.908H91.28ZM32.816 91.028L32.528 92.756H34.832V91.316L32.816 91.028ZM88.4 137.972C88.112 139.988 87.824 141.14 87.824 141.428C87.824 142.868 88.112 143.444 88.976 143.444H89.264V142.292C89.264 140.852 88.976 139.412 88.4 137.972ZM59.888 89.012L60.464 90.74L62.768 91.028L62.192 89.012H59.888ZM56.144 81.524L57.872 84.116V82.964V80.66L56.144 81.524ZM54.416 62.804L54.992 63.956C55.28 65.108 55.856 65.972 56.432 66.836V66.26C56.432 65.396 55.856 63.668 54.704 61.652L54.416 62.804ZM101.936 121.268V125.012H103.952C103.664 123.572 103.664 122.132 103.376 121.268H101.936ZM62.768 214.004H65.36V214.868L63.056 216.884L62.768 214.004ZM58.736 209.972L60.464 209.684L61.328 212.276H58.448L58.736 209.972ZM57.296 207.956C56.144 207.092 55.568 206.516 55.28 205.652L56.72 205.076C57.584 205.94 57.872 206.516 57.872 207.092L57.296 207.956ZM61.904 211.124L64.208 210.836C64.208 210.836 65.072 211.124 66.512 211.412L61.904 212.276V211.124ZM78.32 226.676C77.744 225.812 77.456 225.524 77.456 225.236V224.372H79.472C79.76 224.66 79.76 224.948 79.76 225.812V226.1V226.388L78.32 226.676ZM62.768 208.244V207.956C62.768 207.092 63.056 206.228 63.344 205.94L65.36 208.82L63.056 209.396L62.768 208.244ZM56.72 199.604C57.872 198.164 59.024 197.588 60.176 197.588H60.464C60.176 198.74 59.024 199.892 57.296 200.756L56.72 199.604ZM90.704 229.844C90.992 228.116 91.856 227.252 93.872 227.252H94.448V228.692C93.008 229.556 91.856 229.844 90.704 229.844ZM58.736 195.86C57.872 194.996 57.296 194.132 57.296 193.556L61.04 192.692L58.736 195.86ZM57.872 181.748C56.432 181.172 55.568 179.156 55.28 175.7L59.6 177.14V180.884L57.872 181.748ZM110 237.908C100.496 241.076 91.856 242.804 83.792 242.804C53.84 242.804 37.712 226.1 37.712 196.148C37.712 182.036 42.32 165.62 51.248 146.9H52.4L50.96 153.236L49.52 153.524C49.52 154.676 47.792 158.708 47.792 160.724L50.096 161.012L50.384 161.876L46.64 162.452V165.044L50.384 164.18L50.96 166.484L48.656 167.924L46.352 167.348C46.352 168.788 46.064 171.668 45.2 175.412L46.928 173.972H48.656L49.232 176.276L45.488 177.14C45.776 177.716 45.488 179.156 45.2 181.172C47.216 182.612 48.656 183.188 49.52 183.476L50.096 187.796L47.792 188.372V184.916L46.352 185.204V186.932C46.352 189.524 46.928 191.252 48.368 192.404C48.08 192.692 48.08 193.268 48.08 194.42C48.08 197.012 52.112 204.212 52.976 206.516C53.264 207.38 55.28 209.684 59.024 213.428C62.192 216.308 63.92 218.612 64.496 220.628C65.936 220.916 67.088 221.78 68.24 222.644C67.664 220.052 67.376 218.324 67.376 217.172L70.544 217.46L69.104 218.036L69.68 219.188C72.56 218.9 74.576 218.9 75.44 219.476C75.152 221.78 74.576 223.22 73.712 224.084L71.984 221.78L68.816 222.644L69.104 223.508L73.424 225.524C77.168 229.844 84.368 232.436 95.312 232.724L96.176 233.876L105.968 234.452C107.12 235.892 108.56 237.044 110 237.908ZM119.504 239.06H122.384V239.924H119.504V239.06ZM93.584 214.004C92.72 212.564 92.144 211.124 92.144 209.684C94.16 210.26 95.888 211.124 96.752 211.988H98.768C97.616 214.58 96.464 216.596 95.6 218.036L93.584 214.004ZM118.352 234.164L117.2 233.588L117.488 233.012L123.248 231.572L118.352 234.164ZM131.312 241.652C130.16 241.652 129.008 241.652 128.144 241.94C126.704 242.228 125.84 242.228 125.264 241.94L125.84 239.06L127.856 240.212C129.872 239.636 131.024 239.348 131.6 239.348C132.176 239.636 132.752 240.788 133.04 242.804L131.6 243.092L131.312 241.652ZM91.568 205.652C93.008 204.212 92.72 203.348 90.704 203.06C91.28 201.908 91.28 200.756 90.704 199.316C93.008 202.196 94.448 204.5 95.312 206.516L93.872 207.092L91.568 205.652ZM94.16 200.468C96.752 201.332 97.904 202.484 97.904 204.5V205.076V205.652C96.176 203.924 95.024 202.196 94.16 200.468ZM119.792 227.252H122.384C122.384 228.116 121.808 228.692 120.368 229.556L119.792 227.252ZM136.208 240.212C136.208 239.924 136.208 239.636 136.496 239.348H137.648L138.512 241.364L136.496 241.652L136.208 240.212ZM51.824 152.372L56.432 153.524V154.676L52.976 154.964L51.824 152.372ZM15.248 113.492C14.672 112.916 14.384 112.052 14.096 110.9H16.688V113.492H15.248ZM131.312 225.524L126.992 225.236V224.372C129.584 224.084 131.312 223.796 132.176 222.932L133.04 225.524L131.6 226.388L131.312 225.524ZM19.856 116.66C20.432 115.22 21.008 114.644 21.872 114.356L22.16 115.796L19.856 116.66ZM92.432 186.932V186.356V185.78L94.736 186.356L93.872 187.508L92.432 186.932ZM23.024 119.252C23.312 117.812 24.464 116.948 25.904 116.948H26.768V118.388L23.024 119.252ZM14.096 108.596L14.384 107.156H14.672C15.536 107.156 16.4 108.02 16.688 109.46H14.096V108.596ZM31.088 122.996C30.512 122.132 30.224 121.268 29.936 119.828C31.952 120.116 32.528 120.692 33.392 120.98L33.68 122.708L31.088 122.996ZM152.336 237.332L154.064 237.62V237.908L152.624 239.348L152.336 237.332ZM137.36 220.916L137.936 220.052L139.088 220.916L137.36 222.068V220.916ZM95.312 175.988L96.176 177.428L94.16 179.156L95.312 175.988ZM5.74398 89.012C5.45598 88.724 5.45598 87.86 5.45598 86.708C5.45598 86.42 5.45598 86.132 5.16798 86.132C5.16798 85.268 5.45598 84.116 6.03198 82.676H8.04798L8.62398 83.54C6.89598 84.98 6.03198 86.708 5.74398 89.012ZM99.92 178.58C99.056 178.004 98.192 177.14 97.328 175.988C97.616 175.7 98.192 175.7 99.632 175.7H99.92H100.496C100.496 177.14 100.208 178.292 99.92 178.58ZM140.816 218.324H141.68L140.24 219.764L140.816 218.324ZM150.32 219.476H150.608H150.32ZM11.216 74.324H12.656C12.368 75.188 12.08 75.476 11.504 75.764L11.216 74.324ZM8.33598 72.02L10.064 71.444C10.352 71.444 10.64 71.732 10.928 72.596H8.91198L8.33598 72.02ZM148.016 138.836C163.28 137.684 173.936 146.9 173.936 163.028C173.936 170.516 170.768 180.02 164.432 191.54C157.808 203.924 151.472 210.836 145.136 212.564C143.696 216.02 138.512 219.188 129.872 222.068C122.96 224.66 116.912 225.812 111.44 225.812C108.848 225.812 106.832 225.524 105.392 224.66C104.528 221.78 103.376 220.34 102.224 220.052L101.936 224.084L97.904 222.644C97.904 223.508 98.48 221.492 99.344 216.884H100.496L101.072 219.764H101.936L101.072 210.26C103.088 210.836 105.392 211.124 108.272 211.124C119.216 211.124 125.552 208.244 126.992 202.772C122.096 207.092 116.048 209.108 108.848 209.108C106.256 209.108 103.376 208.532 100.496 207.668L99.344 204.212C100.208 201.62 100.784 198.164 100.784 193.268L98.192 192.98V192.116L101.936 191.252C104.816 181.172 107.984 174.548 111.728 171.38C113.744 166.484 116.048 163.316 118.064 161.876L118.64 159.284C122.096 158.132 124.112 156.404 124.688 153.812C128.432 151.22 132.752 147.476 137.648 142.004C139.664 141.716 141.68 140.564 144.272 139.124L148.016 138.836ZM161.552 208.532L161.84 207.956L163.568 208.532L161.552 209.396V208.532ZM21.872 66.836L24.176 65.684L23.024 68.276L21.872 68.564V66.836ZM168.176 199.892L168.752 199.028L170.192 199.316C170.192 201.62 169.904 203.348 169.04 204.788L168.176 199.892ZM120.656 147.764L121.232 147.476L120.656 147.764ZM125.84 147.476L127.28 148.052V148.34L126.416 149.78L125.84 147.476ZM169.904 197.3L173.072 191.54L173.936 191.828C174.512 192.692 175.664 193.556 177.104 194.42V196.148C175.088 197.588 173.648 198.164 172.784 198.452L169.904 197.3ZM126.416 140.852L124.688 141.716L126.416 140.852ZM176.528 190.676C174.8 190.676 173.936 190.676 173.648 190.388L174.8 188.084H175.952C176.816 187.796 178.544 188.084 181.136 188.948L178.832 191.828L176.528 190.676ZM34.544 46.388H37.424V47.252L35.12 47.828L34.544 46.388ZM40.592 45.236C41.456 44.372 42.32 43.796 43.184 43.508V45.812L41.456 46.388L40.592 45.236ZM178.832 187.508L177.968 184.052C177.968 183.764 178.256 182.612 178.544 180.308H182L181.712 183.764L183.44 185.204L182.864 187.22L178.832 187.508ZM136.496 137.108C136.208 136.82 136.208 136.532 136.208 136.244C136.208 135.668 136.208 135.38 136.496 135.092C136.784 135.668 137.36 136.244 137.648 137.108H136.496ZM122.96 53.012C109.424 61.364 97.328 71.156 85.808 81.812L83.792 76.916L82.064 79.508C78.32 78.932 74.288 81.236 69.968 86.42L60.176 98.228C54.704 99.092 48.368 95.06 41.168 85.844C34.544 77.492 30.8 69.716 29.936 63.092C40.592 55.604 51.824 50.996 64.208 49.268C69.392 48.692 82.064 48.404 102.512 48.404C105.68 48.404 108.56 48.98 110.576 50.132C116.048 51.284 120.368 52.148 122.96 53.012ZM112.016 86.42H113.744L111.152 88.148L112.016 86.42ZM89.552 125.588L90.992 123.86L92.72 126.452L95.312 126.74C95.6 124.148 94.736 122.996 93.296 122.708L95.024 122.132L95.6 120.404L99.344 120.98L97.616 117.236L104.24 110.612C136.784 109.46 163.28 101.396 184.304 86.132C186.32 88.724 188.912 91.028 192.368 93.044L193.232 96.212C191.216 97.076 186.32 99.668 179.12 103.988C173.36 107.444 168.464 109.172 164.144 109.46C158.096 113.78 151.184 116.66 143.12 118.388C140.528 120.116 136.496 121.268 130.448 122.132C125.264 122.708 121.232 123.86 118.064 125.3L89.84 128.756L89.552 125.588ZM178.256 129.332C179.12 129.332 179.696 129.62 181.136 129.908L181.712 131.348H175.952L178.256 129.332ZM97.04 87.572L102.224 80.66H101.648C105.392 77.78 108.272 75.764 110.288 74.612V73.172C117.488 66.548 124.976 61.076 132.176 55.604L134.48 57.62L143.12 59.636L143.408 60.788C150.032 62.804 155.216 63.956 158.384 65.396V67.7C152.912 67.988 149.744 69.14 149.168 70.58C136.208 72.596 128.144 75.476 124.4 79.508C115.184 80.948 105.392 89.012 97.04 95.06V87.572ZM109.712 104.852C110.288 102.836 118.352 98.228 120.656 97.364C125.552 93.62 128.72 91.028 130.16 89.588L130.448 89.012C142.832 82.964 151.76 78.644 157.808 76.052C160.112 75.764 166.16 73.172 168.752 73.172C171.056 73.172 173.072 74.324 174.8 76.916C178.544 78.644 181.136 80.372 182.576 81.812L183.152 83.252C163.856 95.636 139.376 102.836 109.712 104.852ZM173.072 110.324C173.072 108.884 173.936 108.02 175.952 108.02H177.104C176.24 109.748 175.664 110.9 174.8 111.764L173.072 110.324ZM183.44 102.836H186.608L183.728 105.14L183.44 102.836ZM188.912 99.38H191.216C190.928 100.244 190.352 100.532 189.488 100.82L188.912 99.38ZM180.272 73.748V71.156H183.728L182.576 74.612L180.272 73.748ZM184.88 76.052C185.168 74.036 185.744 72.308 186.032 71.156H196.688C195.248 73.748 192.656 76.628 188.912 79.508L184.88 76.052ZM190.352 81.236C194.672 77.492 197.552 74.324 198.992 71.156H201.584C201.872 71.156 202.16 71.156 202.448 71.444L205.04 72.308L205.328 69.716C206.768 69.716 208.208 70.868 209.072 73.172L206.768 76.052C207.92 77.492 207.344 79.796 205.328 82.388L209.072 83.828V85.844L205.904 86.708L205.616 85.844C203.6 86.708 202.448 87.284 202.16 88.148L197.84 89.012L190.352 81.236ZM193.232 63.668C195.248 63.38 196.112 63.092 196.4 63.092L198.128 63.956L193.232 63.668ZM141.68 48.98C174.512 27.092 207.344 16.148 240.464 16.148C249.68 16.148 257.744 17.876 264.656 21.044C273.008 25.364 277.04 31.988 277.04 41.204C277.04 53.588 268.112 65.396 250.544 76.628C234.992 86.42 220.304 91.604 206.48 91.892V91.604L204.752 90.74L205.616 89.012L206.768 91.316C209.36 90.452 211.664 83.828 213.68 82.676C213.968 73.748 211.664 69.14 206.768 68.276L204.752 65.396H201.296L201.584 69.14L200.432 68.276C201.872 63.38 200.432 61.076 196.688 61.076C194.672 61.076 192.368 61.94 190.064 63.668H177.68C173.36 63.668 169.616 63.38 166.448 63.092C163.568 61.076 159.824 59.06 155.504 57.62L154.928 55.604C149.168 53.012 144.848 50.996 141.68 48.98ZM144.848 244.532C148.88 242.516 152.048 241.076 154.352 240.212C168.752 237.62 175.952 232.436 175.952 224.372C171.056 224.66 168.752 225.236 168.464 226.676L174.224 225.812C173.36 230.132 170.48 232.436 165.584 233.012C162.992 235.892 160.688 237.908 158.96 238.772L158.096 237.62L155.792 238.196L155.504 235.892C161.264 233.3 165.584 231.572 168.176 229.556L167.888 228.116L164.144 228.692C160.976 233.012 154.928 235.604 146.576 236.18L146.288 237.332L149.456 237.62L149.168 239.636L141.968 241.076V239.348L145.424 237.332C134.192 237.044 127.28 237.044 124.112 236.18C133.04 232.436 139.952 227.828 146.576 222.932C152.624 221.78 160.688 216.02 171.056 205.364C181.424 194.42 186.896 186.068 187.76 180.308C189.2 178.868 190.928 173.684 192.944 172.532L193.232 154.388C194.096 153.524 194.384 152.948 194.384 152.084L193.232 151.796L192.368 141.716H190.64L191.792 143.732V170.516C190.064 171.956 188.624 173.972 187.76 175.988C186.896 177.428 186.32 179.444 185.456 182.612L183.728 182.9L182.864 180.308L184.304 179.156V177.14L181.712 175.988V174.26L184.304 173.396L184.88 170.804L188.624 169.364V168.5C184.304 168.212 181.424 170.804 179.984 176.852L178.544 177.14L177.392 180.884C178.832 176.564 179.408 171.668 179.408 165.908C179.408 146.324 169.04 136.532 148.016 136.532H147.728L148.016 136.244L158.672 134.228C162.416 133.364 166.16 133.076 169.616 133.076C176.24 133.076 180.848 135.38 183.44 139.988H184.304C183.44 137.396 183.152 135.956 184.016 135.092L182.864 133.652L183.44 133.076C183.728 133.076 185.168 134.228 187.184 136.532L186.608 137.396L187.184 140.276H189.776L191.792 139.988L191.216 137.396C183.728 129.908 176.816 125.876 170.192 125.3L169.616 124.436L167.888 124.148C157.808 123.86 147.728 126.452 137.648 131.636C131.6 134.804 122.672 140.276 111.44 149.492L108.272 152.084L107.984 150.932H105.68L105.968 153.236L106.832 153.524C95.024 164.18 89.264 175.988 89.264 188.948C89.264 196.724 89.552 204.5 90.416 213.428L91.856 214.004C93.584 218.9 95.312 222.356 97.04 224.66L89.264 224.948L75.728 219.476L75.152 217.748C69.968 211.988 66.8 207.668 65.36 205.076C64.208 205.364 62.768 204.788 63.056 203.636H64.496V202.196C64.496 199.892 62.48 194.132 62.48 191.828C62.48 190.388 62.768 188.948 63.632 187.508L62.768 185.204C63.632 180.308 64.208 177.428 64.208 175.988L65.36 173.972L62.768 171.956L63.344 171.38L63.92 172.82L65.36 172.532C66.8 160.148 71.696 149.492 80.048 140.276C80.336 138.26 80.912 137.108 81.488 136.244C86.384 135.956 90.128 135.668 92.72 135.668H98.768L99.632 134.804C104.816 134.516 107.696 133.94 108.56 133.076C125.552 130.484 137.936 127.892 146 125.3C147.44 123.86 149.744 122.996 152.912 122.132L160.688 120.98L161.264 119.828C170.192 117.236 177.392 113.78 182.864 109.46C184.304 109.172 186.608 108.02 189.776 106.004C192.944 103.988 195.248 102.836 196.112 102.836C198.416 102.836 200.432 105.428 202.16 110.324L204.176 110.612L204.752 108.02L202.736 107.732V105.716L204.176 105.428C205.04 105.428 206.192 105.716 207.92 106.292C207.056 100.82 204.752 97.94 200.432 97.364L199.568 95.348C202.448 96.212 205.904 96.5 210.224 96.5C227.216 96.5 242.768 91.604 257.456 81.524C273.296 70.868 281.36 57.908 281.36 42.932C281.36 32.276 276.464 24.5 266.384 19.604C258.32 15.86 248.528 13.844 237.296 13.844C205.616 13.844 171.344 24.5 134.192 46.1L129.872 43.508L124.4 43.22L124.112 41.78C118.928 40.916 116.048 40.052 115.184 39.188C99.92 37.172 83.504 36.308 65.936 36.02C65.072 37.172 62.48 37.748 58.16 37.748L57.872 38.612L48.656 39.188C47.216 40.34 44.336 41.492 39.728 42.644C35.408 43.508 32.528 45.236 31.376 47.828L30.512 48.116C33.104 34.58 40.592 23.636 52.976 15.572C64.208 8.37195 77.168 4.62795 91.568 4.62795C101.072 4.62795 109.712 6.06797 116.912 9.23596C126.992 13.556 132.752 19.316 134.192 26.516L135.056 27.668L135.632 25.94C130.736 9.52396 116.336 1.45996 91.856 1.45996C76.016 1.45996 62.48 5.49196 50.672 13.556C38 22.484 30.224 34.004 27.632 48.692C23.024 50.132 20.432 52.724 19.856 56.18C12.656 58.484 8.33598 63.956 6.60798 72.308C4.59198 74.9 3.72798 83.252 2.28798 85.556C3.43998 87.572 4.01598 89.588 4.01598 91.604C6.03198 91.604 7.47198 91.316 8.62398 91.028C8.62398 89.588 8.33598 88.436 8.04798 86.42L9.19998 85.844L9.48798 81.524L7.47198 81.812C6.89598 80.948 6.60798 80.084 6.60798 79.22V77.492C6.31998 77.492 8.62398 78.068 13.52 78.932V80.948H11.504C10.64 82.964 10.352 85.844 10.352 89.588C10.352 92.468 10.64 95.636 11.216 99.092L14.096 98.516C13.232 95.348 12.656 90.74 12.944 84.692C15.824 82.1 17.552 78.068 18.416 72.596L19.568 72.308C22.16 69.716 24.752 67.124 27.344 65.108C28.784 74.324 32.24 81.812 37.712 87.284C38.576 88.148 44.912 93.332 56.72 102.26C57.872 103.124 58.448 104.276 58.448 105.14C58.448 106.004 58.16 106.868 57.584 107.444C54.704 107.444 52.112 107.732 49.52 108.596C46.352 109.46 43.76 109.748 41.744 109.748L41.456 112.628C40.304 113.492 38.864 113.78 37.424 113.492H37.136C37.712 114.068 38 114.644 38 115.22C38 116.66 37.136 118.1 35.12 119.54C27.92 117.236 16.976 107.732 15.536 100.82C13.52 100.532 11.792 101.396 10.064 103.124L7.47198 101.108L8.04798 98.228L4.01598 96.5C4.30398 97.364 4.87998 97.652 5.16798 97.94C5.74398 103.7 8.04798 108.884 12.368 113.78C16.976 118.964 21.584 121.844 26.48 122.708C27.92 124.436 29.936 125.3 32.816 125.588L33.104 126.452H31.376V127.892L33.968 128.18L33.392 133.076L35.408 133.364C38 138.26 39.728 141.14 40.592 141.716C31.376 160.436 26.768 178.292 26.768 195.284C26.768 212.276 32.24 224.948 43.184 233.588C53.264 241.652 66.8 245.684 84.368 245.684C93.872 245.684 103.952 243.668 115.184 239.924L120.656 241.652L123.536 244.82L144.848 244.532ZM188.624 165.62L187.184 163.604L184.88 163.892V166.484L188.624 165.62ZM188.912 162.164C188.048 160.724 187.76 159.86 187.76 159.284L189.488 158.996C188.336 155.828 187.76 153.236 187.76 151.22C187.76 150.068 188.048 149.204 188.624 148.916C188.624 146.9 187.184 142.868 187.184 140.852C186.032 143.444 185.456 146.036 185.456 148.34C185.456 152.66 186.032 157.556 186.896 163.028L188.912 162.164ZM205.904 117.524L204.752 112.628H203.6L204.176 119.828L205.904 117.524ZM212.528 129.908L212.816 126.452C213.104 124.436 212.528 121.268 211.376 117.236L209.36 107.732L208.208 108.02C208.208 114.644 209.072 119.252 210.8 121.844L210.512 128.18H209.648C208.208 128.18 207.344 124.436 205.328 124.436L207.344 130.196L212.528 129.908ZM179.874 184.34C180.162 184.628 180.162 184.916 180.162 185.492C181.602 185.204 182.466 184.916 182.178 184.916C181.89 184.628 181.026 184.34 179.874 184.34ZM195.138 222.932L195.714 223.508L197.442 221.204L196.866 220.628L195.138 222.932ZM199.458 218.612L204.642 211.988L203.778 211.412L198.882 218.036L199.458 218.612ZM223.074 251.444L225.09 247.7L224.226 247.124C223.362 249.14 222.498 250.004 222.21 250.868L223.074 251.444ZM237.186 228.98C237.474 227.828 238.05 227.252 238.338 226.388C238.05 226.1 238.05 226.1 237.762 226.1C237.762 226.388 237.762 226.388 237.474 226.676C236.898 227.252 236.61 227.828 236.322 228.404L237.186 228.98ZM245.826 214.004C244.962 214.292 243.81 216.02 242.37 218.612L245.826 214.004ZM269.73 176.564L273.762 170.516C273.474 170.228 273.186 169.94 272.898 169.94L268.866 175.988L269.73 176.564ZM258.498 167.636C258.21 167.348 258.21 167.348 258.21 167.06V166.772L259.074 166.196C259.362 166.196 259.65 166.484 259.938 166.772C259.65 166.772 259.074 167.06 258.498 167.636ZM216.162 173.108C215.874 172.532 215.874 171.956 216.162 171.092C217.026 171.38 217.314 171.956 217.602 172.244L216.162 173.108ZM222.498 175.124L221.922 173.396H224.802V174.548L222.498 175.124ZM208.386 174.836C209.826 174.836 210.69 174.836 211.266 175.124V175.988C210.402 175.988 209.826 176.276 208.386 176.564V174.836ZM216.162 175.988L218.178 176.564C218.178 177.428 217.602 178.004 216.162 178.292V175.988ZM202.914 180.884C202.914 180.596 202.914 180.308 202.626 180.02L205.506 178.58C205.218 178.292 205.218 177.428 205.218 176.564H206.37L205.794 180.02C204.93 180.02 204.066 180.308 202.914 180.884ZM196.578 188.66C196.29 188.084 196.29 187.508 196.578 186.932C197.442 187.508 197.73 187.796 197.73 188.084C197.442 188.084 196.866 188.372 196.578 188.66ZM185.634 193.844L185.922 192.98C186.786 192.98 187.65 192.98 187.938 192.692L188.226 194.708H186.498L185.634 193.844ZM275.202 203.924C274.626 203.06 274.05 201.62 273.474 199.028C274.914 198.74 277.794 196.436 278.946 196.436C278.082 199.028 276.93 201.332 275.202 203.924ZM270.306 211.124V209.972L269.154 209.396C269.154 208.244 269.442 206.804 270.306 205.364H272.034C272.034 205.652 271.746 206.228 271.458 207.668V211.124H270.306ZM176.706 212.276C176.418 209.108 176.706 207.38 176.994 205.94H179.01C179.874 209.684 179.01 211.7 176.706 212.276ZM220.482 213.716C220.482 213.14 220.482 212.852 220.194 212.564C220.77 212.276 221.634 212.276 222.786 212.276V214.004L220.482 213.716ZM264.546 217.172L262.53 215.732V214.58L265.41 212.564V217.172H264.546ZM258.786 222.644L257.346 221.204C258.21 220.628 259.65 220.34 261.378 220.628L261.666 221.78L258.786 222.644ZM253.602 224.66C252.162 224.66 253.602 224.372 259.074 223.508V224.948C257.634 225.812 255.906 226.1 253.314 226.388L253.602 224.66ZM183.906 230.708V227.54H184.77L185.346 229.844L183.906 230.708ZM247.266 234.164C248.13 232.148 248.994 231.572 249.858 231.86C249.858 232.724 249.858 233.588 250.146 234.164H247.266ZM244.674 236.18C244.386 236.18 244.386 235.604 244.098 234.74C244.386 234.74 245.25 235.028 247.266 235.316L244.674 236.18ZM231.714 240.212C231.714 239.06 231.714 238.196 232.002 237.62C232.866 237.62 233.154 237.62 233.442 237.908V240.212H231.714ZM239.778 240.788C239.49 240.5 239.49 239.924 239.49 239.348C240.066 239.06 240.93 239.06 242.37 239.06C242.082 239.348 242.082 239.636 242.082 240.5C240.93 240.5 240.066 240.5 239.778 240.788ZM227.682 240.5C227.394 239.636 227.682 238.772 228.258 237.908C228.546 238.196 228.546 238.772 228.546 240.212C228.258 240.212 227.97 240.212 227.682 240.5ZM182.178 240.212C182.178 238.772 182.178 237.908 181.89 237.332H183.33C183.33 238.484 183.33 239.348 183.042 239.924C182.754 239.924 182.466 239.924 182.178 240.212ZM295.362 246.548H294.498C294.786 246.836 294.786 247.124 294.786 247.412L295.362 246.548ZM272.898 259.796C273.762 258.356 274.338 257.78 275.202 256.916C274.914 256.916 274.626 256.916 274.626 256.628L272.61 258.356C272.61 259.22 272.61 259.508 272.898 259.796ZM298.242 234.452L297.09 233.876L295.65 234.74L296.514 235.892L298.242 234.452ZM270.018 237.044C270.018 236.18 270.306 235.892 270.306 235.604C270.306 235.316 270.306 235.316 270.594 235.028L269.73 233.588L266.85 236.756C267.138 237.044 268.002 237.044 270.018 237.044ZM223.65 247.124L222.786 246.548L221.922 247.124L222.498 248.276L223.65 247.124ZM206.946 260.66L204.93 257.78C203.49 259.508 203.778 261.236 205.218 262.676L206.946 260.66ZM282.69 175.412L281.826 174.26C276.354 178.58 273.474 180.884 272.61 181.172L273.474 182.036L274.626 181.46C274.914 181.748 276.354 181.748 279.234 181.46L282.69 175.412ZM255.042 200.468C255.042 199.892 254.754 199.316 253.89 198.452L253.026 199.892C253.314 200.18 253.602 200.468 253.89 200.468L246.69 211.7L247.554 212.276L255.042 200.468H254.754H255.042ZM208.674 224.66L205.794 220.34C203.49 220.916 202.626 222.356 202.914 224.372C204.93 225.236 206.082 225.524 206.946 224.66L208.098 225.236L208.674 224.66ZM198.018 218.036L196.29 214.868C192.834 214.58 191.106 216.02 191.106 218.9C192.546 220.34 193.986 221.204 195.138 221.204L198.018 218.036ZM226.53 182.036C226.818 182.036 226.818 182.036 226.818 181.748L225.954 180.884L225.666 181.172L226.53 182.036ZM213.57 198.452C213.858 196.148 214.146 194.42 214.146 193.268C212.706 191.252 210.69 190.676 208.386 191.54C213.858 185.492 216.45 182.036 217.314 181.172L227.97 174.836C228.834 171.956 231.426 170.516 235.746 170.516C237.762 170.516 239.778 171.092 241.218 171.956C240.93 180.308 237.474 187.796 231.426 193.844C229.41 199.892 223.362 207.092 218.466 213.14L219.33 214.58C217.314 214.58 216.162 216.02 216.162 219.188L214.722 218.324C211.842 220.628 209.826 223.22 208.962 225.812C210.402 226.676 210.978 227.252 211.842 228.116L210.69 230.132H209.25C208.962 228.692 208.386 227.54 207.522 226.388C207.234 226.1 206.946 226.1 206.658 226.1C205.794 227.828 204.642 229.268 203.778 230.132C204.642 230.132 205.506 230.42 206.658 230.996C206.37 231.86 205.506 232.436 204.066 233.3C203.778 233.012 203.778 233.012 203.49 233.012C203.202 232.148 202.626 231.86 202.338 230.996L201.186 232.148C200.61 232.148 200.322 232.148 200.034 231.86C197.442 235.028 196.29 235.892 194.274 236.18C193.986 236.468 193.41 236.468 193.122 236.468C192.258 236.468 191.394 236.756 189.954 236.756C188.514 235.316 187.65 233.012 187.65 230.42C188.514 231.86 189.378 232.724 190.242 233.588L191.394 231.86C190.53 230.132 189.378 229.268 187.65 228.98C188.226 219.764 192.258 211.412 199.746 204.212C200.61 202.772 201.762 200.468 203.778 197.3C205.218 199.604 206.658 201.044 207.522 201.332C207.81 201.62 209.538 201.044 212.994 200.18V199.892L213.57 200.18L220.77 190.676L219.906 190.1L213.57 198.452ZM335.97 204.788H335.106C335.394 205.076 335.394 205.364 335.394 205.652L335.97 204.788ZM316.098 215.156C315.81 215.156 315.522 215.156 315.234 214.868L313.218 216.596C313.218 217.46 313.218 217.748 313.506 218.036L316.098 215.156ZM338.85 192.692L337.698 192.116L336.258 192.98L337.122 194.132L338.85 192.692ZM310.626 195.284C310.914 194.42 311.202 193.556 311.49 193.268L310.626 191.828L307.458 194.996C307.746 195.284 308.61 195.284 310.626 195.284ZM264.546 205.364L263.682 204.788L262.53 205.364C262.818 206.228 262.818 206.804 263.106 206.804L264.546 205.364ZM247.554 218.9L245.538 216.308C244.098 217.748 244.386 219.476 245.826 220.916L247.554 218.9ZM234.018 199.604C233.73 199.892 233.442 199.892 233.442 199.892L232.29 198.452H232.002L233.154 197.012L234.018 199.316V199.604ZM261.666 182.324C262.53 180.884 263.106 179.444 263.106 178.58C266.85 173.108 269.154 169.076 269.442 166.484L270.882 165.62C273.474 169.94 275.49 172.532 276.354 173.396C277.506 170.228 277.794 167.06 276.93 163.892C277.218 163.892 277.794 163.316 278.658 162.452L277.506 161.876C277.218 162.164 277.218 162.452 276.93 163.316C276.066 160.724 274.626 158.42 272.61 156.692C270.306 158.42 269.442 160.724 270.018 163.316C261.666 163.604 255.33 163.892 249.858 164.756L245.538 168.788V166.196C242.946 164.18 238.914 163.028 233.73 163.028C230.562 163.028 228.546 163.892 227.682 165.62C222.498 165.908 219.618 166.772 218.754 168.5C217.026 168.5 215.874 168.5 215.298 168.788C214.434 169.652 210.69 171.956 203.778 175.988C199.17 178.58 195.714 181.46 193.698 184.628C189.378 186.644 185.346 189.812 181.314 194.42L179.298 194.996C176.994 192.404 173.826 192.116 169.794 194.132L172.386 205.94H174.69C173.826 209.396 173.826 211.412 174.114 211.7C172.098 218.612 172.098 223.508 174.114 226.388C173.826 226.676 173.826 227.252 173.826 228.116C173.826 229.556 174.978 232.436 176.994 236.18C179.298 239.348 181.314 241.076 182.754 241.364C184.194 243.092 184.77 244.244 185.058 244.532L187.938 243.38C189.09 243.092 190.242 243.38 191.106 244.244C192.258 244.532 195.426 243.38 200.322 241.364C200.898 241.652 201.762 241.652 202.914 241.652L206.946 237.62C206.946 237.332 206.946 237.044 206.658 236.756C208.962 233.876 212.706 230.42 217.89 226.1C219.042 226.964 219.906 229.268 220.194 232.436L221.058 233.012C222.21 240.212 227.394 243.668 236.61 243.668C242.946 243.668 246.978 241.364 248.706 236.468C250.146 235.604 251.01 235.316 251.874 235.028C258.786 228.116 266.274 219.764 274.338 209.684C274.626 207.956 276.066 205.652 278.37 202.772C280.674 199.604 281.826 196.724 281.826 194.132C280.962 193.844 278.946 193.268 276.354 192.98C275.49 193.844 274.914 194.996 274.626 197.012C269.73 201.332 266.274 205.364 264.258 208.532C263.394 209.972 259.362 214.868 259.362 218.612C257.922 218.9 254.178 222.068 248.706 228.116C243.234 233.876 239.202 236.756 236.898 236.756C235.17 236.756 233.73 235.604 232.578 233.012C232.866 230.42 233.154 228.404 233.154 226.964C234.018 227.828 234.882 228.404 235.458 228.692C235.746 227.828 236.322 226.1 236.61 223.508L237.762 222.932C239.202 218.612 240.93 215.156 242.946 212.852C243.81 211.412 245.25 208.532 247.842 204.788C249.858 201.62 251.586 198.452 252.45 195.86C255.618 192.692 257.346 189.524 257.346 186.644L257.922 186.356C258.21 187.22 258.21 187.796 257.922 188.372C258.786 189.236 259.362 189.524 259.938 189.812L256.482 196.148H257.058L261.09 189.524C262.818 188.084 264.258 186.644 265.122 184.916C265.41 185.78 265.986 186.068 266.274 186.932L264.834 188.66L267.426 191.54C268.29 190.964 269.154 190.964 270.018 191.54C271.458 189.236 271.458 186.932 270.594 184.916C269.442 184.628 268.29 184.628 266.85 184.916C266.274 184.34 265.986 183.476 265.698 182.612L265.122 183.188L267.138 179.732C265.986 180.02 264.834 181.46 263.394 183.764H260.226C260.514 182.9 260.514 182.612 260.802 182.324H261.666ZM232.29 190.1C231.426 188.084 229.698 187.22 227.106 187.22C228.546 189.236 229.698 190.964 230.85 191.828L232.29 190.1ZM238.914 176.276L236.898 173.108C233.73 172.82 232.002 174.26 231.714 177.14C233.154 178.58 234.594 179.444 235.746 179.444L238.914 176.276ZM267.426 140.276L267.714 139.988L266.85 139.124L266.562 139.412L267.426 140.276ZM309.186 173.972L308.61 173.396C308.322 174.548 308.034 175.124 308.034 174.836L309.186 173.972ZM280.098 159.572L284.418 153.236C283.554 152.948 281.826 155.252 279.234 159.572H280.098ZM298.285 156.98L290.509 171.668L291.661 171.956L299.148 158.708L298.285 156.98ZM270.349 239.06L268.909 239.636L268.045 238.484L270.349 238.196V239.06ZM280.717 230.132H279.853V224.66H282.445L280.717 230.132ZM317.005 240.212L316.717 236.468L319.021 237.332L319.309 240.212H317.005ZM331.117 237.332L327.373 240.212L327.085 237.332L329.965 235.604H331.117V237.332ZM313.261 218.612L312.685 219.188L311.821 217.46L312.397 214.58H313.261V218.612ZM317.869 219.188L315.853 219.764L315.277 217.748H317.869V219.188ZM315.277 212.852H312.685V211.7H315.277V212.852ZM321.325 208.244L318.445 208.532L317.005 204.212L318.157 204.5L319.021 206.516L321.325 207.092V208.244ZM351.853 216.02L349.837 218.036L349.549 214.868L351.853 213.428V216.02ZM340.333 193.268L339.469 193.844V189.236L340.621 189.812L340.333 193.268ZM359.917 204.5C359.629 205.94 358.189 207.092 355.597 207.38C355.597 205.94 357.037 204.788 359.917 204.5ZM320.173 161.876H319.021V158.996H320.173V161.876ZM362.797 201.044L360.493 201.332L360.205 200.18H362.797V201.044ZM365.389 196.724L363.661 197.3L363.373 195.572L365.389 194.708V196.724ZM341.197 126.164V127.028H340.045L340.621 124.724L341.197 125.876V126.164ZM346.669 100.532C347.533 100.82 347.821 101.108 347.821 101.684C347.821 102.548 346.957 103.124 345.229 103.988L344.653 102.548L346.669 100.532ZM354.733 100.532C354.733 102.836 353.869 104.852 352.429 106.292L350.701 102.26L354.733 100.532ZM366.829 192.692H363.373C361.357 196.148 359.629 198.164 358.765 198.452C357.325 201.62 356.173 204.212 355.309 205.652C353.293 206.516 349.837 211.412 344.941 220.628L346.381 219.764L347.821 220.628C346.093 226.1 343.213 228.98 339.181 229.556V226.964C340.621 226.676 342.061 225.812 343.501 224.372L343.213 222.068L339.181 224.948C338.029 226.964 336.589 228.404 335.149 229.556L337.453 230.42L333.133 231.572C331.693 233.876 327.661 235.028 321.037 235.028C323.629 230.708 325.645 227.54 326.509 225.236C327.373 219.188 328.525 215.444 330.253 213.428V211.988L331.405 211.412C331.405 203.06 327.661 197.3 320.173 194.708V193.556C324.493 192.116 326.797 189.812 327.373 186.644C331.693 185.204 334.285 182.612 335.149 179.156C340.045 175.7 342.925 173.108 343.789 171.38H347.821L348.397 173.108C340.621 180.02 336.589 185.204 336.589 188.948L337.741 189.524C337.453 190.388 337.741 192.116 338.029 194.708C344.653 194.708 349.261 194.42 352.141 193.556C355.597 189.524 358.189 186.356 359.629 184.34L361.357 180.02L361.645 169.652C359.053 165.044 356.461 162.74 354.157 162.74L351.565 163.604V165.908L350.413 166.196V162.452C340.333 163.316 333.133 167.924 329.101 175.988C327.373 176.852 326.221 178.004 325.933 179.444C324.493 180.02 322.477 181.46 320.461 183.476C319.597 184.34 318.445 186.068 316.429 188.66C312.109 189.524 308.653 189.812 305.485 189.812V189.236C305.485 186.068 307.789 182.324 312.109 178.004C312.973 175.412 314.701 171.956 317.869 167.636C321.037 163.316 322.765 159.86 323.629 157.556L325.645 156.692L329.389 147.476C331.117 145.748 332.269 144.308 332.557 142.868C335.437 141.428 338.893 135.668 342.925 125.012C344.653 123.86 345.805 122.42 346.093 120.404C350.989 112.34 356.173 104.852 361.069 97.652L353.581 97.94L353.005 99.092H344.077L346.669 94.484L345.517 94.196L343.789 95.06L342.349 93.908L341.484 91.604C338.605 96.212 336.589 98.804 335.149 99.38C335.437 99.956 334.573 101.972 332.844 105.14V105.428L330.253 110.324C325.933 118.1 321.325 123.572 316.429 127.316L319.597 119.252L318.733 118.676L301.165 152.66L308.077 142.004L311.245 143.732V144.02C303.757 154.1 297.133 165.908 291.661 178.868C287.917 182.612 286.189 185.78 285.901 188.66L287.917 189.524H285.037C277.261 204.5 272.653 212.276 271.213 212.564C268.333 218.9 265.741 223.508 263.437 226.388L264.013 226.964L267.469 226.676L265.453 231.284L261.997 228.98L260.557 233.012L259.117 233.3V236.756L261.133 236.468L260.557 238.196L258.253 237.044L254.22 241.94C254.508 241.652 259.981 241.652 270.061 241.652C274.957 241.652 277.549 241.076 277.549 239.924L275.245 239.348V238.196C276.973 237.908 278.989 236.468 281.005 234.164C280.717 233.588 281.581 231.86 283.021 229.268C283.885 227.252 284.749 225.812 286.189 224.372L286.477 219.188L288.781 219.764C291.373 213.14 294.541 207.668 298.573 203.636L297.709 201.044C299.725 199.604 302.029 199.028 305.197 199.028C306.061 199.028 308.941 199.316 314.701 199.604L314.989 200.468C314.989 203.348 313.837 206.804 311.821 211.124C309.517 216.02 307.789 219.476 307.501 221.492L306.349 222.068L306.061 227.54L308.653 227.828L309.229 228.692L306.349 229.556V232.148C310.957 239.06 316.141 242.228 321.901 241.94L328.237 241.652C338.893 235.604 346.093 228.98 349.837 221.204C354.157 217.172 356.461 214.292 356.461 212.564L354.157 213.14L354.733 211.124L357.901 211.7C361.645 209.108 363.661 205.94 364.237 201.908C365.965 200.18 367.405 198.452 368.269 197.012L366.829 192.692ZM321.037 114.644L319.885 117.524L321.613 115.796L321.037 114.644ZM323.053 110.9L321.325 113.78L322.189 114.068L323.629 111.764L323.053 110.9ZM328.525 96.788L321.901 109.46L325.933 107.732C327.085 103.124 328.237 99.668 329.389 97.652L328.525 96.788ZM344.878 268.148C344.014 269.012 343.438 270.164 343.149 271.316H343.726C344.59 270.452 344.878 269.588 344.878 268.148ZM362.734 260.948L362.158 261.812C362.445 262.676 362.734 262.964 363.022 262.676L361.582 266.708L362.734 267.284L364.75 263.54L362.734 260.948ZM366.19 255.476V254.324L363.022 252.884L363.886 254.612L361.87 258.356L365.326 259.22L365.902 261.236L368.206 257.204L366.19 255.476ZM369.646 250.292L369.934 251.732L370.798 252.308L371.662 250.868L369.646 250.292ZM381.453 228.692L381.166 231.284L382.03 231.86L383.182 229.556L381.453 228.692ZM381.453 221.492L380.302 223.796L380.878 224.948L381.742 225.236L382.894 222.356L381.453 221.492ZM390.094 211.988L390.67 213.14L389.518 215.732L390.382 216.308L392.974 211.7L390.094 211.988ZM430.414 189.236C433.006 185.492 435.022 182.9 436.462 182.036C437.038 177.716 437.326 174.836 437.326 172.82C437.326 170.804 437.038 168.788 436.75 166.772L435.598 166.196C434.158 163.028 430.414 161.3 424.366 161.3C422.35 161.3 417.742 161.876 410.542 163.028L409.966 164.18L405.646 164.756L399.598 169.364C390.382 172.532 382.606 177.428 376.27 184.34C369.358 187.508 362.445 197.3 361.006 204.212L359.854 204.5C358.99 210.548 358.414 214.58 358.414 216.596C358.414 216.884 358.414 217.46 358.702 217.748C358.99 218.612 358.702 220.052 359.566 221.492L358.414 222.356L359.566 225.236L363.598 225.812L363.886 229.556L363.022 229.844L362.445 227.252L359.854 227.54C361.87 232.436 363.31 235.892 364.174 238.484H366.766L367.054 241.652L369.646 241.94L369.358 242.516L378.574 244.532L379.438 243.956L378.286 240.788H380.59L381.453 241.364L381.166 243.092L392.974 243.38L393.262 242.228L390.958 241.94V240.788C395.854 241.364 402.478 238.772 410.254 233.3C417.742 227.828 422.35 222.068 423.79 216.596C427.534 216.02 430.702 213.428 433.87 208.532C438.19 201.908 441.07 198.164 442.222 197.3V195.86L440.782 195.284V192.692H436.462C432.718 199.028 427.534 205.652 420.334 212.564C413.71 218.612 407.374 224.66 401.614 230.42C397.294 231.284 395.278 232.724 395.278 235.028C387.214 236.468 383.47 237.332 384.334 237.332C385.198 237.332 382.894 237.044 376.846 236.18L375.982 235.316L377.422 233.588L374.83 232.436L374.254 233.012C373.678 231.284 373.39 229.268 373.39 227.252C373.39 221.204 374.83 216.884 377.998 214.004C378.862 209.108 382.03 206.228 386.926 205.94L389.23 204.5H392.11C405.646 200.756 419.758 197.3 430.414 189.236ZM361.006 222.356L361.294 219.476H362.445L363.886 222.644L361.006 222.356ZM387.502 241.94L384.91 242.228L384.622 241.076H387.502V241.94ZM361.582 215.444C361.294 215.156 361.294 214.292 361.294 213.428C361.294 213.14 361.294 213.14 361.006 212.852V211.7L362.158 211.124L364.174 213.428L361.582 215.444ZM397.87 238.772L396.142 239.636L396.43 235.892L398.446 235.604L397.87 238.772ZM366.478 201.62L366.19 198.74H367.63L368.782 201.332L366.478 201.62ZM368.206 196.436V194.708L370.222 194.996L370.51 195.86L368.206 196.436ZM416.014 223.22C413.422 227.54 411.118 230.708 409.39 232.436C406.798 232.724 404.782 233.012 403.342 233.876V232.724L405.07 229.268H407.662L412.558 223.508L416.014 223.22ZM387.214 204.5L385.198 204.788L384.91 201.908H387.502L387.214 204.5ZM426.958 212.564C424.942 215.156 422.926 216.596 420.91 216.884L420.334 221.492H417.453L419.469 218.9L420.046 215.444C421.198 215.156 423.79 211.412 426.094 211.412C426.67 211.412 426.958 211.7 426.958 212.564ZM388.942 178.868L386.638 179.444V177.716H388.942V178.868ZM426.67 169.364C426.382 174.26 421.486 180.02 411.694 186.644C402.766 192.692 395.278 195.86 389.806 196.724C390.958 191.252 395.278 185.204 403.054 178.58C410.83 171.956 417.453 168.788 423.502 168.788C423.79 169.076 424.078 169.076 424.366 169.076C425.23 169.076 425.518 169.364 426.67 169.364ZM434.734 201.044C434.734 205.076 432.142 207.956 426.958 209.972C430.414 205.652 432.43 202.772 433.294 200.756L434.734 201.044ZM440.206 194.42C440.206 195.572 439.63 196.436 438.478 197.3L438.19 194.708L440.206 194.42ZM411.982 168.212L411.118 165.332L413.998 165.044H414.862L416.014 167.636L411.982 168.212ZM432.43 178.292C432.43 179.444 431.854 180.308 430.702 181.172V178.58L432.43 178.292ZM433.87 168.788C433.006 170.804 432.142 172.244 430.702 173.108L430.414 170.804L431.566 169.076C428.398 166.484 425.806 165.044 423.79 164.18C424.654 163.892 424.942 163.892 425.23 163.604C425.518 163.604 425.518 163.604 425.806 163.316C427.246 163.316 430.702 165.044 431.854 165.044L433.87 168.788ZM490.502 232.148C491.078 231.86 491.366 230.708 491.366 228.692H490.214L490.502 232.148ZM476.678 223.508C478.694 222.356 479.846 221.78 480.422 221.78C480.71 221.78 481.574 222.068 483.014 222.356L482.726 224.372L477.254 225.236L476.678 223.508ZM498.854 239.924H501.734C501.734 240.788 500.87 241.364 499.142 242.228L498.854 239.924ZM480.134 217.46V216.884C480.134 216.02 480.422 215.156 480.71 214.868C482.15 215.444 483.014 216.596 483.302 218.612H480.134V217.46ZM505.766 239.06C504.326 238.196 503.75 237.332 503.75 236.468L505.766 235.892C506.342 236.468 506.63 237.332 506.63 238.196L505.766 239.06ZM486.47 217.46C489.062 218.036 490.79 218.612 491.654 219.188L488.774 222.644L486.47 217.46ZM494.822 212.852L496.838 212.564V215.732L495.686 216.02L494.822 212.852ZM510.662 232.148C510.662 229.556 511.814 228.116 514.406 228.116L515.558 228.404C515.558 230.708 512.966 232.148 510.95 233.588L510.662 232.148ZM515.846 225.524C519.014 224.084 520.742 223.22 521.318 222.644C521.318 224.66 519.59 226.1 515.846 226.964V225.524ZM490.502 195.284H493.094L493.67 196.436L490.502 196.724V195.284ZM500.006 180.02L502.022 181.172L501.446 183.188L499.43 182.036L499.142 180.308L500.006 180.02ZM504.614 186.644L514.118 184.916L514.694 187.508C510.086 188.084 506.63 188.66 504.614 189.236V186.644ZM506.054 175.124V176.564H503.75L504.326 174.836L506.054 175.124ZM506.342 170.228L508.934 168.5L508.646 173.108L506.63 173.972L506.342 170.228ZM514.118 167.348L511.238 168.212H510.95C512.39 167.924 513.542 167.348 514.406 166.484L514.118 167.348ZM525.062 170.228C524.486 168.788 524.198 167.636 524.198 166.484V165.908H526.79L526.502 169.94L525.062 170.228ZM487.91 245.684C501.734 244.532 509.51 241.076 510.95 235.316C516.998 231.572 521.606 228.404 524.198 225.812V223.508L521.606 222.068C521.606 220.052 521.894 218.9 522.758 218.036C521.894 218.324 512.678 225.524 495.686 239.636C493.958 238.772 492.23 237.332 490.214 235.316C488.198 235.028 487.046 234.452 486.47 233.876C486.47 228.98 488.774 226.1 493.094 225.812C493.382 225.524 493.958 224.084 494.822 221.492C495.398 219.764 496.55 218.9 498.566 218.612L498.854 216.02L500.294 215.444C501.734 210.548 504.038 207.092 507.206 205.076C508.07 203.06 509.51 200.18 512.102 195.86C514.694 191.54 516.422 188.372 516.71 185.78C518.726 184.916 520.166 183.476 520.454 181.748L533.99 163.028L521.894 163.316C521.894 163.028 522.182 162.74 522.182 162.452V162.164L521.894 163.316L514.694 163.892V163.028C512.102 162.74 510.086 162.452 509.222 162.74C507.206 163.028 506.342 164.18 506.342 166.772C506.63 166.484 506.63 166.484 506.918 166.484C507.782 166.484 507.782 166.772 506.918 167.636C506.63 167.636 506.63 167.636 506.342 167.348L503.174 172.244L502.886 171.956L504.038 169.364C504.038 167.636 502.886 166.772 500.294 166.772C499.142 166.772 497.99 167.06 496.838 167.636L497.702 168.212L493.958 174.836L495.974 175.7C496.262 177.14 496.55 178.004 496.55 178.004C496.55 178.58 496.262 179.156 495.398 179.732L497.414 180.596C496.55 182.9 495.686 184.628 494.534 185.78L494.246 190.1C491.654 191.54 489.062 194.708 485.894 199.604C482.726 204.5 480.998 208.244 480.998 210.548C480.998 211.124 480.998 211.412 481.286 211.7L478.118 212.564C476.102 223.22 474.95 229.268 474.95 230.996L476.39 233.588L480.134 228.98C482.438 229.268 483.59 231.572 483.59 235.316L483.302 237.332H484.454L485.03 236.18L489.062 236.468C489.638 238.484 490.79 239.348 492.518 239.636L490.214 242.804L486.47 241.364L487.91 239.636H486.47L485.894 241.076C481.862 238.484 479.27 236.18 477.83 234.452V237.332C480.134 238.196 481.286 239.924 481.286 242.228C484.454 243.668 486.47 244.82 487.91 245.684ZM546.086 161.876C546.662 160.436 547.526 159.284 548.39 158.42C548.39 154.676 546.95 152.948 544.07 152.948C542.63 152.948 540.902 153.812 539.462 155.252C539.462 157.556 541.19 159.86 544.358 161.876H546.086ZM530.246 208.532C531.11 208.244 531.686 207.668 531.974 207.092L533.414 207.38V211.412L530.246 211.7V208.532ZM524.486 222.356C527.366 221.78 529.382 219.476 530.534 215.156L532.838 214.292C533.702 212.852 535.718 210.26 539.174 206.804C542.054 203.636 543.494 201.044 543.494 198.74H542.918C542.054 198.74 540.614 199.604 539.174 201.044L536.87 203.348C536.582 203.636 536.294 203.924 536.294 204.212L535.43 203.636C536.87 202.196 536.87 200.756 536.006 199.028C533.99 200.468 531.686 203.348 528.806 207.38C526.214 210.836 523.622 213.428 521.318 214.868V215.732C523.91 215.444 525.926 214.58 527.942 213.14L528.518 213.716L527.942 217.172C525.926 219.188 524.774 220.916 524.486 222.356ZM497.99 154.1L498.278 147.764L493.67 150.356L497.99 154.1ZM537.158 199.028C538.31 198.164 540.038 197.012 542.342 196.148C543.206 196.148 544.07 196.436 545.222 197.012C544.934 195.284 544.358 193.844 543.494 192.98C540.614 193.556 538.886 194.708 538.598 196.148H537.158V199.028ZM507.494 147.188C502.31 143.156 499.43 141.14 498.566 140.852L506.342 147.476L507.494 147.188ZM531.11 159.284V158.42H529.958V159.284H531.11ZM569.414 198.74C570.278 198.452 571.142 196.724 572.294 192.98L567.686 193.556L569.414 198.74ZM531.398 150.356L531.686 152.66L527.942 152.948L526.502 152.66L525.638 148.628L531.398 150.356ZM537.734 141.716H539.75C539.75 142.868 540.038 143.156 540.038 144.02C540.038 144.308 540.038 144.596 540.326 144.596C540.326 145.46 539.174 146.324 537.158 146.612L537.734 141.716ZM541.19 135.956C540.902 137.396 540.326 138.548 539.75 138.836L539.174 135.956L530.822 135.38C530.534 135.092 530.246 134.516 529.382 134.228L529.958 132.788L534.854 132.5L538.598 133.076L539.75 135.956H541.19ZM522.47 157.844L527.654 155.252V154.964C533.99 154.964 537.446 153.524 538.31 150.356L542.342 147.476C542.63 144.02 542.918 141.716 542.918 139.7L544.07 139.124C543.206 133.364 539.174 130.484 531.398 130.196C524.198 133.94 520.166 138.836 519.302 144.308L516.134 144.884C514.694 150.068 513.83 152.948 513.83 153.812V154.964H514.694L514.982 156.692L518.15 158.132L522.47 157.844ZM574.022 163.892V163.604H573.158V163.892H574.022ZM540.038 125.012V124.436H539.462V125.012H540.038ZM627.869 66.836C627.581 66.836 626.429 67.7 626.429 68.564L627.869 66.836ZM634.493 88.148C634.205 87.86 633.629 87.86 633.341 86.996V84.98C635.357 83.828 636.221 82.676 636.221 81.236C634.781 80.948 633.917 80.66 633.917 80.66C633.629 81.524 633.629 82.388 633.341 82.676L629.021 84.98C628.733 85.268 628.733 85.268 628.733 85.556C628.733 85.844 628.445 86.42 628.445 87.284C629.309 88.148 631.037 89.3 633.629 90.452L634.493 88.148ZM626.429 97.364C626.141 96.788 626.141 94.772 626.141 91.604L625.565 94.484C624.125 94.772 623.549 95.924 623.261 97.364H626.429ZM621.821 101.108C621.821 100.244 622.109 100.244 622.109 99.956C622.109 99.668 622.109 99.668 622.397 99.38C622.109 99.092 620.957 99.092 619.517 99.092L618.653 101.972L621.821 101.108ZM627.581 100.532C626.717 100.532 625.853 100.532 625.565 100.82C625.565 102.26 625.565 103.124 625.853 103.7L627.581 100.532ZM619.805 108.308C619.517 108.02 619.517 107.156 619.517 106.292C618.653 105.716 618.077 105.14 617.213 104.852C617.213 107.156 617.789 108.308 618.653 108.308H619.805ZM620.957 111.764C621.821 110.9 622.397 109.748 622.685 108.308L621.245 109.172C620.669 110.324 620.669 111.188 620.957 111.764ZM619.517 115.508C619.517 114.644 619.517 114.068 619.805 113.78L617.213 114.644C615.773 112.628 614.909 111.188 614.045 110.324H612.893C612.605 112.34 612.605 114.068 612.605 115.508C615.197 114.932 616.637 115.22 617.501 116.372L619.517 115.508ZM610.301 120.116C610.589 119.54 611.165 118.964 612.029 118.676C610.877 118.676 610.301 119.252 610.301 120.116ZM581.501 122.132C584.669 115.508 586.109 111.764 586.109 111.188C582.365 115.508 579.485 119.828 577.469 123.572L581.501 122.132ZM577.469 127.604L579.485 125.012H578.333L577.469 127.604ZM575.741 130.772C576.029 130.484 576.317 130.484 576.605 130.484V128.18L575.741 130.772ZM587.261 132.5C587.261 133.652 586.685 134.804 585.533 136.244L587.261 132.5ZM604.829 139.412C605.693 139.124 606.557 137.684 607.709 135.092C607.133 135.092 606.845 135.092 606.557 135.38L604.829 139.412ZM600.509 146.9C600.509 146.612 600.509 146.612 600.797 146.612C601.085 146.612 601.085 146.612 601.373 146.324C601.085 146.036 601.085 145.748 601.085 144.884L600.509 146.9ZM591.005 152.66C592.157 151.22 593.021 149.78 593.309 148.916H595.901C595.613 148.628 595.613 148.052 595.613 147.764C595.613 147.476 595.613 147.476 595.325 147.188C593.309 147.188 591.869 148.916 591.005 152.66ZM591.581 154.964C591.293 154.676 591.293 154.388 591.293 154.1C589.853 153.812 588.989 153.524 588.125 153.524L587.261 155.828L591.581 154.964ZM593.885 158.132C594.173 157.268 594.749 156.692 595.325 156.404L594.461 155.828C594.173 156.116 594.173 156.116 594.173 156.404C594.173 156.692 593.885 157.268 593.885 158.132ZM579.485 161.588L578.909 158.996H580.061V161.588H579.485ZM561.629 155.54C561.917 155.252 562.205 155.252 563.069 155.252C562.205 157.844 561.341 158.996 561.053 159.86C560.189 161.3 558.749 162.452 557.309 163.316L561.629 155.54ZM590.429 166.484C590.429 165.908 590.429 165.62 590.717 165.332H592.445C592.445 165.62 592.733 165.908 593.309 166.484H590.429ZM580.061 182.324L577.181 183.188L574.589 181.748C574.301 183.188 575.165 185.492 576.605 188.372L580.061 182.324ZM543.773 190.388V188.66H545.789V189.812L543.773 190.388ZM560.189 191.54V188.66H561.341V191.54H560.189ZM569.981 201.62L576.605 188.66C572.285 189.524 569.693 190.964 569.405 192.98L570.557 193.556C570.845 194.132 569.981 196.724 568.541 201.62H569.981ZM560.189 207.092C560.477 206.516 561.053 205.94 561.629 205.652C561.341 205.364 561.053 205.364 560.189 205.364V207.092ZM578.909 207.956C578.621 207.956 578.621 207.956 578.621 207.668C578.621 207.38 578.333 207.092 578.333 206.228L581.213 207.092V207.956H578.909ZM565.661 209.108L567.389 205.652L565.949 204.788C565.085 206.228 564.509 207.668 564.509 209.108H565.661ZM530.237 213.716V212.276C529.949 212.276 530.813 212.564 532.253 212.852L530.237 213.716ZM567.389 221.78C567.677 219.764 567.965 218.9 567.965 218.612H569.981C569.693 219.476 569.117 220.052 568.829 221.204C568.541 221.492 568.253 221.492 567.389 221.78ZM549.245 221.78C550.397 221.492 551.549 220.628 552.413 219.764C552.413 218.9 552.125 218.036 551.549 217.748L548.957 220.916C548.957 221.204 548.957 221.492 549.245 221.78ZM555.869 224.084C557.885 223.508 562.781 215.156 562.781 212.564C562.781 211.7 562.493 211.412 562.205 211.412L560.189 213.14L557.885 211.988C558.173 211.124 558.461 209.972 559.325 208.82H557.021C555.581 210.26 555.005 211.412 555.005 212.852C557.021 213.716 557.885 214.58 558.749 214.868C556.733 220.916 555.581 223.796 555.869 224.084ZM559.613 228.116V227.252L561.341 226.388L562.493 228.116H559.613ZM530.237 228.116V225.524C531.101 225.524 531.677 225.524 531.965 225.812L532.541 228.116H530.237ZM546.365 232.436C546.653 232.148 546.941 232.148 547.805 232.148C549.245 228.98 550.109 226.964 550.973 226.1L546.365 226.964V232.436ZM550.109 237.332C550.397 233.588 552.701 231.86 556.733 232.436C554.717 234.452 552.701 235.892 550.109 237.332ZM543.485 239.924C543.197 239.636 543.197 238.196 543.197 236.18C544.637 237.044 545.501 238.484 546.365 239.924H543.485ZM528.509 241.94L531.389 238.484C533.693 240.212 536.861 241.076 540.605 241.076C548.957 241.076 559.037 236.18 561.629 230.42C565.373 228.116 568.541 226.1 570.557 224.084L583.517 209.108C588.413 203.636 591.005 197.876 591.005 192.116C588.413 192.404 586.685 193.844 586.397 195.86C586.685 196.148 586.973 196.148 587.261 196.148C587.549 196.148 587.549 196.148 587.549 196.436C588.413 199.028 588.125 200.468 586.109 200.468L585.245 197.012H583.229C581.789 200.468 574.589 208.244 573.149 212.852C570.845 214.292 567.965 217.46 563.645 221.78C560.189 225.524 556.733 228.692 553.277 230.708C553.565 228.404 553.565 226.676 553.853 225.812L549.821 233.012C544.925 233.012 541.469 232.724 540.029 232.436C539.453 225.812 541.757 220.628 547.229 217.172L559.325 198.164C560.189 196.148 561.917 192.404 565.085 187.508C567.677 183.188 569.693 179.732 570.557 176.564C573.437 175.7 575.453 173.396 576.317 169.94L579.485 169.364C580.061 170.228 580.925 171.092 581.789 171.668C583.229 170.804 583.805 169.94 583.805 169.076C584.669 169.076 584.957 169.076 585.245 169.364C583.805 172.82 583.229 175.412 582.941 177.428C585.533 174.26 587.261 171.38 588.125 169.076C594.173 168.788 597.629 166.484 598.205 162.452C592.157 163.316 588.701 164.468 587.549 165.62C587.837 165.908 588.125 163.316 588.701 158.132H586.685C586.397 160.148 586.109 161.588 586.109 162.452C585.821 162.452 584.957 162.74 583.517 163.028C583.229 159.86 584.093 156.98 586.685 154.388C589.853 150.068 591.581 147.476 591.869 146.036C595.325 140.564 597.053 137.684 597.053 137.108C591.869 137.684 588.989 137.972 588.125 137.684C589.853 134.516 591.005 132.788 591.581 132.788C597.341 121.556 601.949 113.492 605.405 108.02C603.101 108.884 601.373 108.308 600.509 106.004C598.781 106.292 596.477 108.308 593.885 111.764C591.581 114.932 590.429 117.812 590.429 119.828L593.885 121.268L594.749 118.1C596.189 117.812 597.053 118.1 597.341 118.388C595.325 120.98 593.021 124.724 590.429 129.044C590.141 129.332 589.565 129.044 588.701 128.756C588.701 125.588 588.125 124.148 586.685 124.436C581.501 132.212 576.893 137.108 572.573 139.412C572.573 138.548 574.013 134.516 574.013 132.5L555.869 163.028C550.397 163.316 546.365 163.316 543.773 163.604C541.757 165.62 540.893 167.636 540.893 169.652C548.669 168.788 552.989 168.788 554.429 169.076C551.261 174.548 548.381 178.868 546.077 181.748C546.077 181.172 548.093 177.428 551.837 170.804H550.109L542.909 184.628L544.061 183.764C544.637 186.068 541.181 191.54 533.405 200.18C528.221 210.836 525.629 219.188 525.629 224.948C525.629 230.42 527.069 234.452 530.237 237.62L528.509 241.94ZM540.317 247.412L543.773 243.092C542.621 242.516 541.469 242.228 540.029 242.228C539.165 244.82 538.877 246.548 539.165 247.412H540.317Z" fill="#281600"/>
</g>
<defs>
<clipPath id="clip0_410_33">
<rect width="642" height="280" fill="white" transform="translate(0 0.5)"/>
</clipPath>
</defs>
</svg>
