<svg width="183" height="70" viewBox="0 0 183 70" fill="none" xmlns="http://www.w3.org/2000/svg">
<path d="M0.949219 38.3711C0.316406 36.0977 1.40625 33.4609 4.21875 30.4609C7.05469 27.4609 10.9102 24.4375 15.7852 21.3906C20.6836 18.3438 25.8984 15.6367 31.4297 13.2695C36.9609 10.8789 42.1172 9.16797 46.8984 8.13672C51.7031 7.08203 55.418 7.05859 58.043 8.06641C60.4102 9.16797 61.4531 10.7148 61.1719 12.707C60.8906 14.6758 59.7305 16.7148 57.6914 18.8242C55.6523 20.9336 53.1797 22.7266 50.2734 24.2031C47.3906 25.6797 44.5078 26.4531 41.625 26.5234C40.7578 26.5 40.2891 26.2305 40.2188 25.7148C40.1484 25.1992 40.3125 24.6484 40.7109 24.0625C41.1094 23.4766 41.5664 23.0547 42.082 22.7969C42.6211 22.5391 43.0664 22.6328 43.418 23.0781C43.4414 23.125 43.4648 23.1719 43.4883 23.2188C43.582 23.3594 43.6523 23.4883 43.6992 23.6055C43.7461 23.7227 43.7227 23.8633 43.6289 24.0273C43.6289 24.0742 43.6172 24.1094 43.5938 24.1328C43.5234 24.2266 43.4883 24.2969 43.4883 24.3438C43.4883 24.3906 43.5586 24.4141 43.6992 24.4141C45.5039 24.1562 47.5195 23.4297 49.7461 22.2344C51.9961 21.0156 54.0117 19.5977 55.793 17.9805C57.5742 16.3398 58.6992 14.7812 59.168 13.3047C59.6367 11.8047 59.0156 10.6562 57.3047 9.85938C54.8203 8.92187 51.3164 8.98047 46.793 10.0352C42.2695 11.0898 37.3828 12.7891 32.1328 15.1328C26.8828 17.4766 21.9258 20.0898 17.2617 22.9727C12.6211 25.832 8.91797 28.6094 6.15234 31.3047C3.41016 34 2.26172 36.2266 2.70703 37.9844C3.15234 38.9688 4.60547 39.5078 7.06641 39.6016C9.55078 39.6719 12.5391 39.5078 16.0312 39.1094C19.5469 38.6875 23.0508 38.207 26.543 37.668C31.5352 36.8945 35.2852 36.4609 37.793 36.3672C38.332 36.3438 39.0703 36.3672 40.0078 36.4375C40.9453 36.4844 41.8125 36.6602 42.6094 36.9648C43.4297 37.2461 43.9219 37.7266 44.0859 38.4062C44.1797 39.2734 43.5234 40.3516 42.1172 41.6406C40.7109 42.9062 38.9414 44.2305 36.8086 45.6133C34.6758 46.9727 32.5547 48.2383 30.4453 49.4102C28.3594 50.6055 26.6719 51.543 25.3828 52.2227C24.8672 52.5039 24.4688 52.7148 24.1875 52.8555C23.3672 53.3008 22.3945 53.8281 21.2695 54.4375C18.3633 55.9375 15.2578 57.6484 11.9531 59.5703C8.64844 61.4922 6.23438 63.25 4.71094 64.8438C4.40625 65.1719 4.13672 65.3242 3.90234 65.3008C3.66797 65.3008 3.52734 65.1719 3.48047 64.9141C3.43359 64.6562 3.55078 64.3516 3.83203 64C5.44922 62.3125 7.95703 60.4258 11.3555 58.3398C14.7773 56.2773 17.8828 54.4844 20.6719 52.9609C21.5156 52.4922 22.2422 52.082 22.8516 51.7305C23.0625 51.6133 23.4258 51.4141 23.9414 51.1328C25.582 50.2188 27.8672 48.9062 30.7969 47.1953C33.7266 45.4844 36.3867 43.8086 38.7773 42.168C41.1914 40.5273 42.4102 39.3555 42.4336 38.6523C42.3398 38.3477 41.8945 38.1484 41.0977 38.0547C40.3008 37.9609 39.4688 37.9258 38.6016 37.9492C37.7578 37.9727 37.207 38.0078 36.9492 38.0547C34.8867 38.2188 32.0391 38.6172 28.4062 39.25C24.7266 39.9062 20.8945 40.4805 16.9102 40.9727C12.9258 41.4648 9.44531 41.582 6.46875 41.3242C3.49219 41.043 1.65234 40.0586 0.949219 38.3711ZM54.4219 43.1523C52.875 44.2773 51.8438 44.7109 51.3281 44.4531C50.8359 44.1953 50.7188 43.5391 50.9766 42.4844C51.2109 41.4062 51.6797 40.2227 52.3828 38.9336C53.3203 37.1992 54.0469 36.1094 54.5625 35.6641C55.0781 35.2188 55.6172 35.1836 56.1797 35.5586C56.4609 36.0508 56.4609 36.5312 56.1797 37C55.9219 37.4688 55.5352 37.9141 55.0195 38.3359C54.457 38.8047 54.0469 39.25 53.7891 39.6719C53.5312 40.0938 53.2617 40.6094 52.9805 41.2188C52.9102 41.4062 52.8281 41.5938 52.7344 41.7812C52.5234 42.2031 52.4414 42.4727 52.4883 42.5898C52.5586 42.6836 52.8281 42.5312 53.2969 42.1328C54.0938 41.5234 54.9727 40.7852 55.9336 39.918C56.8711 39.0977 57.7617 38.3594 58.6055 37.7031C59.4727 37.0469 60.1992 36.6602 60.7852 36.543C62.0742 36.4492 62.9414 37.0352 63.3867 38.3008C63.832 39.5664 64.1133 40.7852 64.2305 41.957C64.2539 42.1914 64.2773 42.4023 64.3008 42.5898C64.4883 43.7852 64.7344 44.875 65.0391 45.8594C65.3438 46.8438 65.707 47.4883 66.1289 47.793C66.5508 48.0977 67.1719 47.9336 67.9922 47.3008C68.8359 46.668 69.9961 45.3555 71.4727 43.3633C72.9727 41.3477 74.8828 38.4531 77.2031 34.6797C77.3672 34.3516 77.5781 34.1523 77.8359 34.082C78.1172 34.0117 78.3164 34.082 78.4336 34.293C78.5742 34.5039 78.5156 34.8555 78.2578 35.3477C77.9297 35.8633 77.5781 36.4492 77.2031 37.1055C76.1016 38.9805 74.8359 40.9961 73.4062 43.1523C71.9766 45.2852 70.5234 46.9961 69.0469 48.2852C67.5938 49.5977 66.2695 49.9375 65.0742 49.3047C63.9023 48.6953 63.0234 46.5508 62.4375 42.8711C62.2734 41.6523 62.0742 40.5625 61.8398 39.6016C61.6055 38.6172 61.3359 38.1133 61.0312 38.0898C60.5859 38.2305 59.8828 38.6758 58.9219 39.4258C57.9844 40.1758 57.0586 40.9492 56.1445 41.7461C55.3945 42.3789 54.8203 42.8477 54.4219 43.1523ZM89.9297 34.6445C91.2422 34.9258 91.7695 35.4883 91.5117 36.332C91.2539 37.1758 90.5742 38.0547 89.4727 38.9688C88.3711 39.8828 87.2227 40.5742 86.0273 41.043C84.8555 41.4883 84 41.4648 83.4609 40.9727C83.0859 41.4414 82.6523 42.0625 82.1602 42.8359C81.6914 43.5859 81.4219 44.2539 81.3516 44.8398C81.3516 45.7305 81.9609 46.1172 83.1797 46C84.3984 45.8828 85.8516 45.4961 87.5391 44.8398C89.2266 44.1836 90.7734 43.5156 92.1797 42.8359C93.5859 42.1328 94.4766 41.6523 94.8516 41.3945C95.1328 41.207 95.3906 41.125 95.625 41.1484C95.8828 41.1719 95.9883 41.3008 95.9414 41.5352C95.918 41.7695 95.6133 42.0977 95.0273 42.5195C94.3242 43.0117 93.1289 43.7148 91.4414 44.6289C89.7773 45.5195 88.0078 46.293 86.1328 46.9492C84.2578 47.6055 82.6641 47.8281 81.3516 47.6172C80.0391 47.4062 79.4062 46.4453 79.4531 44.7344C79.5703 43.5859 80.2266 42.2148 81.4219 40.6211C82.6172 39.0273 84 37.6328 85.5703 36.4375C87.1641 35.2188 88.6172 34.6211 89.9297 34.6445ZM89.2266 36.5781C89.0156 36.6484 88.6523 36.8477 88.1367 37.1758C87.6211 37.4805 87.0703 37.832 86.4844 38.2305C85.9219 38.6289 85.4297 39.0039 85.0078 39.3555C84.5859 39.707 84.3398 39.9648 84.2695 40.1289C84.1992 40.293 84.4102 40.293 84.9023 40.1289C85.582 39.8711 86.4141 39.4258 87.3984 38.793C88.3828 38.1367 89.1328 37.5391 89.6484 37C89.8828 36.7422 89.9766 36.5781 89.9297 36.5078C89.9062 36.4375 89.6719 36.4609 89.2266 36.5781ZM103.781 34.6445C105.094 34.9258 105.621 35.4883 105.363 36.332C105.105 37.1758 104.426 38.0547 103.324 38.9688C102.223 39.8828 101.074 40.5742 99.8789 41.043C98.707 41.4883 97.8516 41.4648 97.3125 40.9727C96.9375 41.4414 96.5039 42.0625 96.0117 42.8359C95.543 43.5859 95.2734 44.2539 95.2031 44.8398C95.2031 45.7305 95.8125 46.1172 97.0312 46C98.25 45.8828 99.7031 45.4961 101.391 44.8398C103.078 44.1836 104.625 43.5156 106.031 42.8359C107.438 42.1328 108.328 41.6523 108.703 41.3945C108.984 41.207 109.242 41.125 109.477 41.1484C109.734 41.1719 109.84 41.3008 109.793 41.5352C109.77 41.7695 109.465 42.0977 108.879 42.5195C108.176 43.0117 106.98 43.7148 105.293 44.6289C103.629 45.5195 101.859 46.293 99.9844 46.9492C98.1094 47.6055 96.5156 47.8281 95.2031 47.6172C93.8906 47.4062 93.2578 46.4453 93.3047 44.7344C93.4219 43.5859 94.0781 42.2148 95.2734 40.6211C96.4688 39.0273 97.8516 37.6328 99.4219 36.4375C101.016 35.2188 102.469 34.6211 103.781 34.6445ZM103.078 36.5781C102.867 36.6484 102.504 36.8477 101.988 37.1758C101.473 37.4805 100.922 37.832 100.336 38.2305C99.7734 38.6289 99.2812 39.0039 98.8594 39.3555C98.4375 39.707 98.1914 39.9648 98.1211 40.1289C98.0508 40.293 98.2617 40.293 98.7539 40.1289C99.4336 39.8711 100.266 39.4258 101.25 38.793C102.234 38.1367 102.984 37.5391 103.5 37C103.734 36.7422 103.828 36.5781 103.781 36.5078C103.758 36.4375 103.523 36.4609 103.078 36.5781ZM107.473 22.375C107.426 22.5859 107.25 22.7031 106.945 22.7266C106.641 22.7266 106.312 22.6562 105.961 22.5156C105.609 22.375 105.352 22.1992 105.188 21.9883C105.023 21.7539 105.07 21.5078 105.328 21.25C105.586 20.9922 106.16 20.7461 107.051 20.5117C111.48 19.7617 115.828 19.1172 120.094 18.5781C120.914 18.4844 121.535 18.3906 121.957 18.2969C122.402 18.2031 122.742 18.0508 122.977 17.8398C123.234 17.6055 123.492 17.2422 123.75 16.75C124.172 16.0234 124.605 15.2969 125.051 14.5703C125.145 14.4062 125.238 14.2422 125.332 14.0781C128.965 8.00781 131.426 4.38672 132.715 3.21484C134.73 1.36328 135.598 1.66797 135.316 4.12891C134.848 7.33984 133.207 11.3242 130.395 16.082C130.395 16.1055 130.383 16.1406 130.359 16.1875C129.938 16.8438 129.738 17.2422 129.762 17.3828C129.785 17.5234 130.055 17.5586 130.57 17.4883C130.664 17.4883 130.746 17.4883 130.816 17.4883C131.074 17.4648 131.332 17.4531 131.59 17.4531C137.426 17.0781 143.426 16.9141 149.59 16.9609C149.988 16.9609 150.246 17.0547 150.363 17.2422C150.48 17.4062 150.469 17.5703 150.328 17.7344C150.188 17.875 149.906 17.9336 149.484 17.9102C142.875 17.793 136.465 18.0977 130.254 18.8242C130.043 18.8477 129.855 18.8711 129.691 18.8945C129.34 18.8945 129.059 18.9414 128.848 19.0352C128.637 19.1289 128.414 19.3633 128.18 19.7383C125.25 24.2383 122.18 28.4688 118.969 32.4297C115.781 36.3906 113.121 39.3438 110.988 41.2891C110.871 41.4062 110.777 41.4883 110.707 41.5352C110.637 41.582 110.578 41.6172 110.531 41.6406C110.484 41.6641 110.438 41.6992 110.391 41.7461C110.344 41.793 110.285 41.8633 110.215 41.957C110.145 42.0508 110.051 42.2031 109.934 42.4141C104.73 50.7109 99.4922 58.9844 94.2188 67.2344C94.6406 67.2344 94.8398 67.3867 94.8164 67.6914C94.7695 68.0195 94.582 68.3125 94.2539 68.5703C93.2227 69.3438 92.5078 69.5781 92.1094 69.2734C91.7109 68.9688 91.7344 68.3008 92.1797 67.2695C93.3984 65.3477 94.6172 63.4375 95.8359 61.5391C104.344 48.3203 112.711 34.9609 120.938 21.4609C121.031 21.2734 121.125 21.1094 121.219 20.9688C121.5 20.5703 121.629 20.3008 121.605 20.1602C121.605 19.9961 121.324 19.9609 120.762 20.0547C116.402 20.6875 111.973 21.3906 107.473 22.1641C107.473 22.2344 107.473 22.3047 107.473 22.375ZM125.824 16.6094C125.59 17.0078 125.426 17.3359 125.332 17.5938C125.238 17.8516 125.297 17.9688 125.508 17.9453C125.859 17.8984 126.211 17.8633 126.562 17.8398C126.797 17.8398 126.984 17.8164 127.125 17.7695C127.266 17.7227 127.395 17.6289 127.512 17.4883C127.629 17.3242 127.781 17.0898 127.969 16.7852C130.57 12.332 132.375 8.39453 133.383 4.97266C132.117 6.37891 129.926 9.70703 126.809 14.957C126.668 15.1914 126.527 15.4258 126.387 15.6602C126.199 15.9648 126.012 16.2812 125.824 16.6094ZM123.609 20.3008C122.812 21.6133 121.98 22.9961 121.113 24.4492C119.027 28.0586 116.801 31.668 114.434 35.2773C113.215 37.1055 113.297 37.2578 114.68 35.7344C118.219 31.6094 121.887 26.5586 125.684 20.582C125.941 20.1367 126.117 19.832 126.211 19.668C126.305 19.4805 126.305 19.375 126.211 19.3516C126.141 19.3047 125.988 19.293 125.754 19.3164C125.73 19.3164 125.695 19.3164 125.648 19.3164C125.602 19.3398 125.543 19.3516 125.473 19.3516C125.074 19.375 124.723 19.4453 124.418 19.5625C124.113 19.6562 123.844 19.9023 123.609 20.3008ZM125.297 37.2812C125.344 37.2344 125.402 37.1875 125.473 37.1406C126.316 36.4844 127.348 35.7695 128.566 34.9961C129.809 34.2227 131.062 33.707 132.328 33.4492C133.617 33.168 134.742 33.4492 135.703 34.293C136.922 35.6055 136.898 37.2109 135.633 39.1094C134.367 41.0078 132.352 42.8711 129.586 44.6992C126.844 46.5039 123.844 47.957 120.586 49.0586C117.352 50.1836 114.375 50.6406 111.656 50.4297C111.234 50.3594 110.953 50.2305 110.812 50.043C110.648 49.8789 110.637 49.7266 110.777 49.5859C110.918 49.4453 111.211 49.3867 111.656 49.4102C114.07 49.6211 116.672 49.2227 119.461 48.2148C122.25 47.207 124.863 45.9062 127.301 44.3125C129.738 42.7188 131.66 41.1367 133.066 39.5664C134.473 37.9727 135 36.6953 134.648 35.7344C134.156 34.8203 133.172 34.6797 131.695 35.3125C130.219 35.9453 128.59 36.9531 126.809 38.3359C125.027 39.6953 123.41 41.043 121.957 42.3789C120.504 43.7148 119.531 44.6172 119.039 45.0859C119.016 45.1094 119.004 45.1328 119.004 45.1562C118.98 45.1797 118.969 45.1914 118.969 45.1914C118.945 45.1914 118.934 45.1914 118.934 45.1914C118.723 45.3555 118.5 45.4141 118.266 45.3672C118.008 45.3203 117.785 45.1914 117.598 44.9805C117.48 44.7695 117.434 44.5586 117.457 44.3477C117.457 44.1133 117.551 43.9141 117.738 43.75L118.02 43.4688C118.184 43.2812 118.699 42.5547 119.566 41.2891C120.434 40 121.852 37.7266 123.82 34.4688C125.789 31.2109 128.543 26.5352 132.082 20.4414C137.027 11.957 140.285 7.05859 141.855 5.74609C142.301 5.32422 142.723 5.11328 143.121 5.11328C143.543 5.11328 143.906 5.18359 144.211 5.32422C144.562 5.44141 144.773 5.65234 144.844 5.95703C144.938 6.23828 144.938 6.63672 144.844 7.15234C144.586 8.69922 143.719 10.8789 142.242 13.6914C140.648 16.5273 138.328 19.8906 135.281 23.7812C132.258 27.6719 129.516 30.9414 127.055 33.5898C126.516 34.4805 126.105 35.1484 125.824 35.5938C125.66 35.8984 125.484 36.2148 125.297 36.543C125.25 36.6133 125.203 36.6953 125.156 36.7891C124.875 37.2109 124.723 37.4688 124.699 37.5625C124.699 37.6562 124.898 37.5625 125.297 37.2812ZM134.473 20.125C133.77 21.3672 133.137 22.4688 132.574 23.4297C131.191 25.75 130.523 26.9688 130.57 27.0859C130.617 27.1797 131.824 25.6094 134.191 22.375C136.957 18.625 139.09 15.4258 140.59 12.7773C141.715 10.668 142.383 9.30859 142.594 8.69922C142.828 8.08984 142.746 8.01953 142.348 8.48828C141.949 8.93359 141.363 9.70703 140.59 10.8086C139.84 11.8867 139.031 13.0703 138.164 14.3594C137.32 15.6484 136.547 16.832 135.844 17.9102C135.164 18.9883 134.707 19.7266 134.473 20.125ZM124.453 66.6367C124.195 66.5195 124.09 66.2734 124.137 65.8984C124.16 65.5234 124.418 64.8906 124.91 64C125.379 63.1094 126.141 61.8086 127.195 60.0977C128.227 58.3867 129.609 56.125 131.344 53.3125C133.312 50.1719 135.82 46.1406 138.867 41.2188C139.664 39.7188 141.293 36.9062 143.754 32.7812C146.215 28.6328 148.957 24.1562 151.98 19.3516C155.004 14.5234 157.758 10.3281 160.242 6.76562C162.75 3.17969 164.461 1.17578 165.375 0.753906C166.805 0.332031 167.508 0.683594 167.484 1.80859C167.484 2.91016 167.086 4.33984 166.289 6.09766C165.516 7.83203 164.684 9.47266 163.793 11.0195C162.926 12.543 162.352 13.5273 162.07 13.9727C162.047 13.9961 162.035 14.0195 162.035 14.043C158.824 19.2227 155.273 24.4258 151.383 29.6523C147.516 34.8789 144.539 38.3828 142.453 40.1641C142.055 40.4453 141.785 40.6211 141.645 40.6914C141.527 40.7617 141.422 40.832 141.328 40.9023C141.258 40.9727 141.164 41.0898 141.047 41.2539C140.93 41.418 140.766 41.6758 140.555 42.0273L126.598 64.7734C126.668 64.7734 126.656 64.8906 126.562 65.125C126.445 65.3828 126.281 65.6523 126.07 65.9336C125.859 66.2383 125.613 66.4609 125.332 66.6016C125.027 66.7656 124.734 66.7773 124.453 66.6367ZM144.562 35.5586C144.234 36.0742 144.07 36.3672 144.07 36.4375C144.094 36.5078 144.316 36.2852 144.738 35.7695C147.059 32.8164 149.648 29.2656 152.508 25.1172C155.367 20.9688 158.004 16.9492 160.418 13.0586C163.301 8.27734 164.965 5.19531 165.41 3.8125C165.879 2.42969 165.281 2.82812 163.617 5.00781C161.273 8.24219 158.965 11.6992 156.691 15.3789C154.418 19.0586 152.191 22.7617 150.012 26.4883C148.16 29.6289 146.344 32.6523 144.562 35.5586ZM157.605 29.8281C158.238 29.875 158.531 30.0742 158.484 30.4258C158.438 30.7539 158.203 31.0938 157.781 31.4453C157.383 31.7734 156.949 31.9961 156.48 32.1133C156.035 32.207 155.707 32.0547 155.496 31.6562C155.449 31.5391 155.461 31.4336 155.531 31.3398C155.625 31.2227 155.742 31.1289 155.883 31.0586C156.047 30.9648 156.188 30.8828 156.305 30.8125C156.398 30.7891 156.469 30.7656 156.516 30.7422C156.562 30.7188 156.586 30.6953 156.586 30.6719C156.609 30.4141 156.715 30.2031 156.902 30.0391C157.09 29.875 157.324 29.8047 157.605 29.8281ZM149.766 46.5273C148.852 46.5273 148.312 46.2344 148.148 45.6484C147.984 45.0625 148.066 44.3242 148.395 43.4336C148.699 42.5195 149.133 41.5703 149.695 40.5859C150.258 39.5781 150.82 38.6641 151.383 37.8438C151.945 37 152.391 36.3555 152.719 35.9102C152.812 35.7461 152.895 35.6289 152.965 35.5586C152.824 35.1836 152.953 34.7734 153.352 34.3281C153.75 33.8594 154.219 33.5195 154.758 33.3086C155.297 33.0742 155.684 33.1094 155.918 33.4141C156.082 33.6719 156.117 33.918 156.023 34.1523C155.93 34.3867 155.801 34.6094 155.637 34.8203C155.59 34.8672 155.543 34.9258 155.496 34.9961C154.605 36.2617 153.633 37.6797 152.578 39.25C151.547 40.7969 150.773 42.0977 150.258 43.1523C149.859 44.0664 150.105 44.5703 150.996 44.6641C151.91 44.7578 153.082 44.6172 154.512 44.2422C155.965 43.8672 157.289 43.4688 158.484 43.0469C159.703 42.6016 160.43 42.3086 160.664 42.168C160.922 42.0273 161.121 42.0039 161.262 42.0977C161.426 42.1914 161.496 42.3438 161.473 42.5547C161.449 42.7422 161.285 42.9414 160.98 43.1523C159.457 43.9961 157.465 44.7695 155.004 45.4727C152.566 46.1758 150.82 46.5273 149.766 46.5273ZM157.922 46.457C158.109 46.3398 158.332 46.0117 158.59 45.4727C158.848 44.9336 159.141 44.2773 159.469 43.5039C160.078 41.957 160.793 40.4453 161.613 38.9688C162.434 37.4922 163.359 36.6602 164.391 36.4727C164.719 36.543 164.965 36.707 165.129 36.9648C165.293 37.1992 165.246 37.4805 164.988 37.8086C164.59 38.3477 164.238 38.7812 163.934 39.1094C163.652 39.4141 163.359 39.7188 163.055 40.0234C162.75 40.3281 162.375 40.7148 161.93 41.1836C161.625 41.957 161.332 42.7305 161.051 43.5039C160.934 43.8789 160.805 44.2422 160.664 44.5938C160.594 44.8516 160.547 45.0391 160.523 45.1562C160.523 45.25 160.559 45.2969 160.629 45.2969C160.723 45.2969 160.84 45.2734 160.98 45.2266C161.004 45.2031 161.027 45.1914 161.051 45.1914C161.52 45.0508 161.848 45.0625 162.035 45.2266C162.223 45.3672 162.281 45.5547 162.211 45.7891C162.141 46.0234 161.965 46.2227 161.684 46.3867C161.426 46.5273 161.168 46.6094 160.91 46.6328C160.605 46.6797 160.312 46.7969 160.031 46.9844C159.867 47.1016 159.703 47.2773 159.539 47.5117C159.375 47.7461 159.234 47.9688 159.117 48.1797C158.227 49.8906 156.961 51.4961 155.32 52.9961C153.68 54.4961 151.734 55.3984 149.484 55.7031C147.727 55.8672 146.871 55.6445 146.918 55.0352C146.965 54.4258 147.586 53.5938 148.781 52.5391C149.953 51.5078 151.383 50.4414 153.07 49.3398C154.758 48.2383 156.375 47.2773 157.922 46.457ZM156.129 49.7969C156.246 49.6562 156.375 49.4922 156.516 49.3047C156.656 49.1406 156.773 48.9766 156.867 48.8125C156.961 48.6484 157.008 48.5195 157.008 48.4258C157.008 48.3555 156.938 48.3438 156.797 48.3906C156.281 48.625 155.578 49.0469 154.688 49.6562C153.773 50.2891 152.848 50.957 151.91 51.6602C150.973 52.3867 150.223 53.0078 149.66 53.5234C149.074 54.0391 148.852 54.3086 148.992 54.332C149.766 54.3789 150.879 53.9453 152.332 53.0312C153.785 52.1406 155.051 51.0625 156.129 49.7969ZM166.641 46.457C166.828 46.3398 167.051 46.0117 167.309 45.4727C167.566 44.9336 167.859 44.2773 168.188 43.5039C168.797 41.957 169.512 40.4453 170.332 38.9688C171.152 37.4922 172.078 36.6602 173.109 36.4727C173.438 36.543 173.684 36.707 173.848 36.9648C174.012 37.1992 173.965 37.4805 173.707 37.8086C173.309 38.3477 172.957 38.7812 172.652 39.1094C172.371 39.4141 172.078 39.7188 171.773 40.0234C171.469 40.3281 171.094 40.7148 170.648 41.1836C170.344 41.957 170.051 42.7305 169.77 43.5039C169.652 43.8789 169.523 44.2422 169.383 44.5938C169.312 44.8516 169.266 45.0391 169.242 45.1562C169.242 45.25 169.277 45.2969 169.348 45.2969C169.441 45.2969 169.559 45.2734 169.699 45.2266C169.723 45.2031 169.746 45.1914 169.77 45.1914C170.238 45.0508 170.566 45.0625 170.754 45.2266C170.941 45.3672 171 45.5547 170.93 45.7891C170.859 46.0234 170.684 46.2227 170.402 46.3867C170.145 46.5273 169.887 46.6094 169.629 46.6328C169.324 46.6797 169.031 46.7969 168.75 46.9844C168.586 47.1016 168.422 47.2773 168.258 47.5117C168.094 47.7461 167.953 47.9688 167.836 48.1797C166.945 49.8906 165.68 51.4961 164.039 52.9961C162.398 54.4961 160.453 55.3984 158.203 55.7031C156.445 55.8672 155.59 55.6445 155.637 55.0352C155.684 54.4258 156.305 53.5938 157.5 52.5391C158.672 51.5078 160.102 50.4414 161.789 49.3398C163.477 48.2383 165.094 47.2773 166.641 46.457ZM164.848 49.7969C164.965 49.6562 165.094 49.4922 165.234 49.3047C165.375 49.1406 165.492 48.9766 165.586 48.8125C165.68 48.6484 165.727 48.5195 165.727 48.4258C165.727 48.3555 165.656 48.3438 165.516 48.3906C165 48.625 164.297 49.0469 163.406 49.6562C162.492 50.2891 161.566 50.957 160.629 51.6602C159.691 52.3867 158.941 53.0078 158.379 53.5234C157.793 54.0391 157.57 54.3086 157.711 54.332C158.484 54.3789 159.598 53.9453 161.051 53.0312C162.504 52.1406 163.77 51.0625 164.848 49.7969ZM175.359 46.457C175.547 46.3398 175.77 46.0117 176.027 45.4727C176.285 44.9336 176.578 44.2773 176.906 43.5039C177.516 41.957 178.23 40.4453 179.051 38.9688C179.871 37.4922 180.797 36.6602 181.828 36.4727C182.156 36.543 182.402 36.707 182.566 36.9648C182.73 37.1992 182.684 37.4805 182.426 37.8086C182.027 38.3477 181.676 38.7812 181.371 39.1094C181.09 39.4141 180.797 39.7188 180.492 40.0234C180.188 40.3281 179.812 40.7148 179.367 41.1836C179.062 41.957 178.77 42.7305 178.488 43.5039C178.371 43.8789 178.242 44.2422 178.102 44.5938C178.031 44.8516 177.984 45.0391 177.961 45.1562C177.961 45.25 177.996 45.2969 178.066 45.2969C178.16 45.2969 178.277 45.2734 178.418 45.2266C178.441 45.2031 178.465 45.1914 178.488 45.1914C178.957 45.0508 179.285 45.0625 179.473 45.2266C179.66 45.3672 179.719 45.5547 179.648 45.7891C179.578 46.0234 179.402 46.2227 179.121 46.3867C178.863 46.5273 178.605 46.6094 178.348 46.6328C178.043 46.6797 177.75 46.7969 177.469 46.9844C177.305 47.1016 177.141 47.2773 176.977 47.5117C176.812 47.7461 176.672 47.9688 176.555 48.1797C175.664 49.8906 174.398 51.4961 172.758 52.9961C171.117 54.4961 169.172 55.3984 166.922 55.7031C165.164 55.8672 164.309 55.6445 164.355 55.0352C164.402 54.4258 165.023 53.5938 166.219 52.5391C167.391 51.5078 168.82 50.4414 170.508 49.3398C172.195 48.2383 173.812 47.2773 175.359 46.457ZM173.566 49.7969C173.684 49.6562 173.812 49.4922 173.953 49.3047C174.094 49.1406 174.211 48.9766 174.305 48.8125C174.398 48.6484 174.445 48.5195 174.445 48.4258C174.445 48.3555 174.375 48.3438 174.234 48.3906C173.719 48.625 173.016 49.0469 172.125 49.6562C171.211 50.2891 170.285 50.957 169.348 51.6602C168.41 52.3867 167.66 53.0078 167.098 53.5234C166.512 54.0391 166.289 54.3086 166.43 54.332C167.203 54.3789 168.316 53.9453 169.77 53.0312C171.223 52.1406 172.488 51.0625 173.566 49.7969Z" fill="#FF5E40"/>
</svg>
